PathFileType  4	(X/Y/Z) C:\Users\HPL 1\Documents/Temp/Sub278498/Files_W_HJCs/
DataRate	CameraRate	NumFrames	NumMarkers	Units	OrigDataRate	OrigDataStartFrame	OrigNumFrames
50.0	50.0	4	42	mm	50.0	199	227
Frame#	Time  	r_knee			r_shank(antsup)			r_ankle			r_calc			r_5meta			r_toe			L_knee			L_shank(ant_sup)			L_ankle			L_calc			L_5meta			L_toe			r_mknee			r_mankle			L_mknee			L_mankle			r_sh2			r_sh3			r_sh4			L_sh2			L_sh3			r_thigh1			r_thigh2			r_thigh3			r_thigh4			r_thigh5			L_thigh1			L_thigh2			L_thigh3			L_thigh4			r.ASIS			r.PSIS			L.ASIS			L.PSIS			C7			R_Shoulder			L_Shoulder			Sternum			R_HJC			L_HJC			R_HJC_reg			L_HJC_reg			
		X1	Y1	Z1	X2	Y2	Z2	X3	Y3	Z3	X4	Y4	Z4	X5	Y5	Z5	X6	Y6	Z6	X7	Y7	Z7	X8	Y8	Z8	X9	Y9	Z9	X10	Y10	Z10	X11	Y11	Z11	X12	Y12	Z12	X13	Y13	Z13	X14	Y14	Z14	X15	Y15	Z15	X16	Y16	Z16	X17	Y17	Z17	X18	Y18	Z18	X19	Y19	Z19	X20	Y20	Z20	X21	Y21	Z21	X22	Y22	Z22	X23	Y23	Z23	X24	Y24	Z24	X25	Y25	Z25	X26	Y26	Z26	X27	Y27	Z27	X28	Y28	Z28	X29	Y29	Z29	X30	Y30	Z30	X31	Y31	Z31	X32	Y32	Z32	X33	Y33	Z33	X34	Y34	Z34	X35	Y35	Z35	X36	Y36	Z36	X37	Y37	Z37	X38	Y38	Z38	X39	Y39	Z39	X40	Y40	Z40	X41	Y41	Z41	X42	Y42	Z42	

199	3.96000	777.70209	575.43054	-409.62683	790.72559	490.95114	-404.64523	735.27527	114.39120	-409.18176	646.55908	71.56744	-452.13641	847.14734	39.31712	-382.24597	886.27332	73.35876	-445.09845	771.84052	572.81329	-732.84094	795.80841	456.01672	-733.81238	705.92328	113.82556	-731.83740	630.06946	73.93467	-681.18329	821.13861	42.46614	-777.84082	868.44305	70.71164	-721.35132	775.11707	554.09973	-534.90015	747.35156	120.72610	-505.49341	789.08014	561.78436	-610.21729	737.41095	120.80413	-642.08313	786.18146	370.82330	-401.45105	715.66907	491.43301	-392.65027	704.18976	375.69183	-386.37256	708.29602	476.66867	-752.63544	695.10840	354.82727	-753.70648	849.93732	897.21564	-395.18521	847.78271	782.21429	-395.27515	802.34955	749.80164	-382.30927	736.92114	892.51373	-385.40082	741.62408	775.25385	-394.45224	864.35437	838.61218	-752.47729	863.94647	700.48718	-743.26453	749.23138	838.51508	-772.61426	751.91644	704.37415	-752.78961	874.59766	1093.43201	-446.56525	686.11230	1127.17078	-540.71759	884.97211	1095.33569	-704.30365	694.75238	1126.11938	-623.26324	739.22937	1609.38647	-584.75031	781.20557	1580.76746	-419.76843	805.81531	1575.84619	-760.82355	878.21515	1532.00232	-577.53882	804.84654	1005.42060	-459.45842	813.75213	1007.26084	-695.64800	799.98058	1018.30689	-489.88135	817.70243	1016.15034	-659.19247
200	3.98000	777.76038	575.43439	-409.61752	790.81061	490.94238	-404.64502	735.28253	114.36965	-409.18881	646.56329	71.56097	-452.12720	847.14240	39.31466	-382.26163	886.27533	73.37444	-445.09076	771.89050	572.78589	-732.84460	795.86029	456.02786	-733.82306	705.91669	113.78847	-731.83020	630.27917	73.88082	-680.90985	821.13525	42.44994	-777.79572	868.43542	70.78585	-721.19257	775.15509	554.08563	-534.89258	747.34351	120.69499	-505.48862	789.11224	561.75146	-610.23303	737.40161	120.82504	-642.10583	786.28046	370.86270	-401.46896	715.76038	491.44553	-392.65494	704.21411	375.64374	-386.36554	708.41785	476.66660	-752.66467	695.20380	354.77408	-753.73425	850.01440	897.24408	-395.20645	847.88477	782.18036	-395.28165	802.44885	749.78485	-382.30865	736.98517	892.50189	-385.44675	741.72028	775.25183	-394.43332	864.36835	838.63525	-752.53131	863.95123	700.51172	-743.30145	749.16803	838.38635	-772.57721	751.99072	704.35193	-752.86475	874.64709	1093.52979	-446.56689	686.10413	1127.17249	-540.76080	884.98663	1095.34985	-704.33319	694.89709	1126.01648	-623.33630	739.27753	1609.39209	-584.65424	781.14960	1580.74890	-419.71176	805.81342	1575.80774	-760.75830	878.16382	1531.92371	-577.51721	804.93717	1005.48624	-459.44655	813.86559	1007.22583	-695.63603	799.87518	1018.45550	-489.93383	817.90218	1016.08550	-659.22705
201	4.00000	777.83044	575.41803	-409.63000	790.85266	490.91153	-404.67535	735.27069	114.36896	-409.18842	646.57593	71.55721	-452.17706	847.15570	39.32617	-382.25055	886.27130	73.36064	-445.10345	771.90674	572.76874	-732.85132	795.88739	455.98389	-733.81348	705.91162	113.78326	-731.81555	630.31335	73.84681	-680.91058	821.15521	42.44027	-777.83636	868.46094	70.70446	-721.37219	775.14777	554.09045	-534.90637	747.39374	120.70075	-505.46954	789.14838	561.75769	-610.28583	737.31097	120.76701	-642.08990	786.28882	370.83377	-401.47092	715.82855	491.47491	-392.60925	704.25793	375.63809	-386.32498	708.43024	476.67331	-752.70203	695.18701	354.79318	-753.73010	850.11383	897.22852	-395.22330	847.87158	782.16382	-395.30594	802.55408	749.81268	-382.28009	737.10120	892.50354	-385.44595	741.79980	775.22363	-394.37537	864.35834	838.64203	-752.56628	864.00128	700.46936	-743.30359	749.15051	838.40112	-772.50891	752.05438	704.32513	-752.90417	874.70605	1093.54675	-446.57080	686.13806	1127.11169	-540.78729	884.97174	1095.35950	-704.36804	694.88794	1125.98535	-623.36224	739.28046	1609.39197	-584.66754	781.11359	1580.73315	-419.64377	805.80902	1575.73816	-760.68921	878.07172	1531.89502	-577.45483	805.00437	1005.48043	-459.46838	813.89866	1007.21432	-695.65918	799.97960	1018.39265	-489.92536	817.92141	1016.08307	-659.24700
202	4.02000	777.84735	575.37781	-409.65955	790.84790	490.90549	-404.67767	735.27704	114.39120	-409.17999	646.61639	71.41971	-452.25443	847.15198	39.33650	-382.26682	886.29987	73.29163	-445.13107	771.92865	572.73383	-732.86798	795.84888	455.98697	-733.84253	705.91675	113.75529	-731.82135	630.29840	73.81197	-680.95331	821.14600	42.40175	-777.83575	868.43243	70.64781	-721.36517	775.12830	554.08112	-534.92126	747.37854	120.69913	-505.47739	789.23975	561.85461	-610.33734	737.48346	120.83080	-642.05927	786.31091	370.79440	-401.49570	715.84424	491.42926	-392.63556	704.29700	375.66162	-386.33304	708.41431	476.67474	-752.67700	695.32306	354.75247	-753.83966	850.15485	897.27246	-395.29285	847.91370	782.16241	-395.31723	802.55579	749.81934	-382.32742	737.13513	892.49719	-385.45859	741.86823	775.23383	-394.41321	864.37085	838.63336	-752.60120	864.01855	700.48505	-743.37848	749.18964	838.41748	-772.63995	752.03912	704.31610	-752.88470	874.75531	1093.49097	-446.59769	686.17902	1127.00354	-540.76794	885.60626	1095.63672	-704.47168	695.02759	1125.84583	-623.34943	739.30615	1609.35608	-584.60797	781.04889	1580.71912	-419.62256	805.80957	1575.74121	-760.65723	878.01025	1531.85168	-577.41406	805.25662	1005.35141	-459.60691	814.37679	1007.39755	-695.78660	800.17749	1018.50155	-490.02564	818.32512	1016.12719	-659.39294
